<svg xmlns="http://www.w3.org/2000/svg" xmlns:xlink="http://www.w3.org/1999/xlink" viewBox="0,0,256,256" width="50px" height="50px" fill-rule="nonzero"><g fill="#ffffff" fill-rule="nonzero" stroke="none" stroke-width="1" stroke-linecap="butt" stroke-linejoin="miter" stroke-miterlimit="10" stroke-dasharray="" stroke-dashoffset="0" font-family="none" font-weight="none" font-size="none" text-anchor="none" style="mix-blend-mode: normal"><g transform="scale(5.12,5.12)"><path d="M31,24c-2.757,0 -5,-2.243 -5,-5v-12c0,-2.757 2.243,-5 5,-5c2.757,0 5,2.243 5,5v12c0,2.757 -2.243,5 -5,5zM43,24h-4c-0.553,0 -1,-0.447 -1,-1v-4c0,-2.757 2.243,-5 5,-5c2.757,0 5,2.243 5,5c0,2.757 -2.243,5 -5,5zM19,24h-12c-2.757,0 -5,-2.243 -5,-5c0,-2.757 2.243,-5 5,-5h12c2.757,0 5,2.243 5,5c0,2.757 -2.243,5 -5,5zM23,12h-4c-2.757,0 -5,-2.243 -5,-5c0,-2.757 2.243,-5 5,-5c2.757,0 5,2.243 5,5v4c0,0.553 -0.447,1 -1,1zM19,48c-2.757,0 -5,-2.243 -5,-5v-12c0,-2.757 2.243,-5 5,-5c2.757,0 5,2.243 5,5v12c0,2.757 -2.243,5 -5,5zM7,36c-2.757,0 -5,-2.243 -5,-5c0,-2.757 2.243,-5 5,-5h4c0.553,0 1,0.447 1,1v4c0,2.757 -2.243,5 -5,5zM43,36h-12c-2.757,0 -5,-2.243 -5,-5c0,-2.757 2.243,-5 5,-5h12c2.757,0 5,2.243 5,5c0,2.757 -2.243,5 -5,5zM31,48c-2.757,0 -5,-2.243 -5,-5v-4c0,-0.553 0.447,-1 1,-1h4c2.757,0 5,2.243 5,5c0,2.757 -2.243,5 -5,5z"></path></g></g></svg>